<?xml version="1.0" encoding="utf-8"?>
<!-- Generator: Adobe Illustrator 26.2.1, SVG Export Plug-In . SVG Version: 6.00 Build 0)  -->
<svg version="1.1" id="Layer_1" xmlns="http://www.w3.org/2000/svg" xmlns:xlink="http://www.w3.org/1999/xlink" x="0px" y="0px"
	 viewBox="0 0 612.6 392.2" style="enable-background:new 0 0 612.6 392.2;" xml:space="preserve">
<g>
	<g>
		<g>
			<path d="M273.8,297l-5.4,51.9h-42.2h-0.8h-44.8l-21.6-92l-12.5,27.8v64.2h-40.8V130.7h40.8v95h0.7c6.9-20.5,21.3-65.2,31.2-95
				h46.4l-36.7,84.5l37.6,131.9l30.7-216.4h27.9v-131H0L0,392h284.4v-95H273.8z"/>
		</g>
		<path d="M602,296.8l-5.4,52.1h-43.1L584.6,130h28V-0.2H328.2l0,392.2h284.4v-95.2H602z M524.9,280.4v68.5h-42.2v-70.1
			c0-3.5-0.6-7.5-1.5-11.3L442.5,130h46c5.9,31.6,12.8,67.8,15.5,95.4h1.4c3.6-26.2,10.6-63.3,16.3-95.4h43.6l-39.5,141
			C525.4,273.6,524.9,275.8,524.9,280.4z"/>
	</g>
</g>
</svg>
