<?xml version="1.0" encoding="utf-8"?>
<!-- Generator: Adobe Illustrator 24.2.3, SVG Export Plug-In . SVG Version: 6.00 Build 0)  -->
<svg version="1.1" id="Layer_1" xmlns="http://www.w3.org/2000/svg" xmlns:xlink="http://www.w3.org/1999/xlink" x="0px" y="0px"
	 viewBox="0 0 552.76 552.76" style="enable-background:new 0 0 552.76 552.76;" xml:space="preserve">
<style type="text/css">
	.st0{fill:#020203;}
</style>
<g>
	<path class="st0" d="M389.25,177.09c-15.07,0-27.28,12.22-27.28,27.28c0,15.07,12.21,27.28,27.28,27.28
		c15.07,0,27.28-12.22,27.28-27.28C416.53,189.31,404.31,177.09,389.25,177.09z"/>
	<path class="st0" d="M461.69,231.66c15.07,0,27.28-12.22,27.28-27.28c0-15.07-12.21-27.28-27.28-27.28
		c-15.07,0-27.28,12.22-27.28,27.28C434.41,219.45,446.62,231.66,461.69,231.66z"/>
	<path class="st0" d="M389.25,249.44c-15.07,0-27.28,12.22-27.28,27.28c0,15.07,12.21,27.28,27.28,27.28
		c15.07,0,27.28-12.21,27.28-27.28C416.53,261.66,404.31,249.44,389.25,249.44z"/>
	<path class="st0" d="M461.69,249.44c-15.07,0-27.28,12.22-27.28,27.28c0,15.07,12.22,27.28,27.28,27.28
		c15.07,0,27.28-12.21,27.28-27.28C488.98,261.66,476.76,249.44,461.69,249.44z"/>
	<path class="st0" d="M91.06,177.09c-15.07,0-27.28,12.22-27.28,27.28c0,15.07,12.21,27.28,27.28,27.28
		c15.07,0,27.28-12.22,27.28-27.28C118.35,189.31,106.13,177.09,91.06,177.09z"/>
	<path class="st0" d="M163.51,231.66c15.07,0,27.28-12.22,27.28-27.28c0-15.07-12.21-27.28-27.28-27.28
		c-15.07,0-27.28,12.22-27.28,27.28C136.23,219.45,148.44,231.66,163.51,231.66z"/>
	<path class="st0" d="M91.06,249.44c-15.07,0-27.28,12.22-27.28,27.28c0,15.07,12.21,27.28,27.28,27.28
		c15.07,0,27.28-12.21,27.28-27.28C118.35,261.66,106.13,249.44,91.06,249.44z"/>
	<path class="st0" d="M190.79,276.73c0-15.07-12.21-27.28-27.28-27.28c-15.07,0-27.28,12.22-27.28,27.28
		c0,15.07,12.21,27.28,27.28,27.28C178.58,304.01,190.79,291.8,190.79,276.73z"/>
	<rect x="208.51" y="177.09" class="st0" width="54.26" height="126.92"/>
	<path class="st0" d="M280.66,177.09v126.92c35.05,0,63.46-28.41,63.46-63.46S315.7,177.09,280.66,177.09z"/>
	<polygon class="st0" points="82.41,363.69 71.7,339.87 63.97,339.87 63.97,375.21 69.94,375.21 69.94,349.05 79.63,370.17 
		84.98,370.17 94.67,348.55 94.67,375.21 100.64,375.21 100.64,339.87 92.91,339.87 	"/>
	<path class="st0" d="M190.77,341.35c-2.39-1.29-5.19-1.93-8.4-1.93c-3.2,0-5.99,0.64-8.38,1.93c-2.39,1.29-4.25,3.27-5.57,5.95
		c-1.33,2.67-1.99,6.09-1.99,10.24c0,4.15,0.66,7.57,1.99,10.24c1.33,2.67,3.19,4.66,5.57,5.94c2.39,1.29,5.18,1.93,8.38,1.93
		s6-0.64,8.39-1.93c2.4-1.29,4.25-3.27,5.57-5.96c1.32-2.68,1.98-6.09,1.98-10.23s-0.66-7.55-1.98-10.23
		C195.02,344.63,193.16,342.64,190.77,341.35z M190.62,365.1c-0.76,1.87-1.83,3.23-3.23,4.07c-1.4,0.84-3.07,1.26-5.01,1.26
		c-1.93,0-3.59-0.42-4.99-1.26c-1.4-0.84-2.48-2.22-3.25-4.13c-0.76-1.91-1.15-4.46-1.15-7.64c0-3.09,0.38-5.57,1.15-7.44
		s1.85-3.22,3.26-4.06c1.41-0.83,3.07-1.25,4.98-1.25c1.93,0,3.59,0.43,4.99,1.28c1.4,0.85,2.48,2.23,3.25,4.14
		c0.76,1.91,1.15,4.45,1.15,7.62C191.75,360.76,191.38,363.23,190.62,365.1z"/>
	<path class="st0" d="M274.53,339.49c-1.16,0-2.35,0.04-3.57,0.13c-1.22,0.09-2.42,0.21-3.61,0.38c-1.19,0.17-2.3,0.36-3.33,0.59
		v34.4c1.07,0.13,2.12,0.23,3.17,0.31c1.05,0.08,2.08,0.14,3.09,0.18c1.01,0.04,1.99,0.06,2.95,0.06c4.47,0,8.2-0.62,11.17-1.87
		c2.98-1.25,5.21-3.2,6.69-5.85c1.48-2.65,2.22-6.08,2.22-10.28c0-6.16-1.58-10.71-4.74-13.65
		C285.43,340.96,280.74,339.49,274.53,339.49z M285.45,364.92c-0.88,1.88-2.2,3.24-3.98,4.09c-1.78,0.85-3.99,1.28-6.65,1.28
		c-0.81,0-1.57-0.02-2.28-0.05c-0.71-0.03-1.42-0.09-2.14-0.17v-24.95c0.75-0.13,1.52-0.23,2.3-0.3c0.79-0.07,1.53-0.11,2.23-0.11
		c2.61,0,4.8,0.43,6.56,1.3c1.76,0.87,3.08,2.24,3.95,4.12c0.87,1.88,1.31,4.34,1.31,7.38
		C286.76,360.57,286.32,363.04,285.45,364.92z"/>
	<path class="st0" d="M367.13,339.87l-11.87,35.34h6.26l3.3-10.15h13.79l3.3,10.15h6.33l-11.87-35.34H367.13z M366.48,359.93
		l5.22-16.08l5.23,16.08H366.48z"/>
	<polygon class="st0" points="470.73,363.69 460.03,339.87 452.29,339.87 452.29,375.21 458.26,375.21 458.26,349.05 467.96,370.17 
		473.3,370.17 483,348.55 483,375.21 488.97,375.21 488.97,339.87 481.23,339.87 	"/>
</g>
</svg>
