<svg id="Layer_1" data-name="Layer 1" xmlns="http://www.w3.org/2000/svg" viewBox="0 0 200 200"><path d="M67.41,86.31c-1.47,3.31-2.93,6.62-4.42,9.92-.57,1.26-1.2,2.51-1.69,3.81-.06.16-.14.33-.34.32s-.35-.23-.43-.42c-.55-1.23-1.08-2.47-1.63-3.69-1.48-3.28-3-6.56-4.47-9.89-.22.24-.13.51-.13.74q0,8.31,0,16.64c0,1,0,1-1,1.05H49.85c-.47,0-.68-.18-.68-.69q0-9.69,0-19.38c0-3.91,0-7.82,0-11.74,0-.91,0-1,.91-1,1.11,0,2.22,0,3.32,0a1,1,0,0,1,1.09.7c1.92,4.32,3.88,8.62,5.82,12.93l.74,1.59c.57-1.24,1.08-2.31,1.57-3.39q2.09-4.66,4.16-9.34c.28-.61.56-1.22.82-1.84a.89.89,0,0,1,.92-.65c1.27,0,2.54,0,3.81,0,.73,0,.82.34.82.93,0,4.66,0,9.32,0,14q0,8.39,0,16.78c0,1.08,0,1.09-1.09,1.09-1.27,0-2.55,0-3.82,0-.52,0-.73-.23-.71-.75.17-3.6,0-7.21.08-10.81,0-2.29,0-4.59,0-6.89Z"/><path d="M133.12,85.59v18.14c0,1,0,1-1.05,1.06H128.9c-.89,0-1-.1-1-1,0-2,0-4,0-6V73.17c0-1.15,0-1.15,1.17-1.15s2.16,0,3.24,0a1,1,0,0,1,1,.61q3.07,6.43,6.17,12.86c.93,1.93,1.87,3.86,3,5.76V73.05c0-1,0-1,1.05-1s2.06,0,3.09,0c.7,0,.92.23.92.91,0,4.71,0,9.41,0,14.12v16.63c0,1.11,0,1.11-1.13,1.12s-2.07,0-3.1,0a1.07,1.07,0,0,1-1.12-.71Q140.24,100,138.29,96t-4-8.23c-.35-.73-.69-1.47-1-2.2Z"/><path d="M19.69,91.37V73c0-1,0-1,1-1h3.09c.85,0,.93.08.94,1,0,.14,0,.29,0,.43v30.11c0,1.26,0,1.26-1.28,1.26-1,0-2,0-3,0a1,1,0,0,1-1.06-.67c-1.95-4.12-3.93-8.23-5.9-12.34-1-2-1.92-4-2.88-6a.5.5,0,0,0-.36-.33v18.23c0,1,0,1.06-1,1.06s-2.07,0-3.1,0c-.85,0-.94-.09-.94-1V73.06c0-1,0-1,1.05-1s2.07,0,3.1,0a1.24,1.24,0,0,1,1.32.84c1.47,3.15,3,6.28,4.5,9.42l4.42,9.12Z"/><path d="M159.54,96.84h-2.88c-.49,0-.71.17-.83.67-.5,2.18-1.05,4.34-1.57,6.51-.12.51-.36.79-.93.77-1.18,0-2.35,0-3.53,0-.68,0-.83-.24-.66-.92q1.89-7.78,3.79-15.58,1.68-6.91,3.38-13.82a17.31,17.31,0,0,1,.45-1.89c.14-.37.31-.56.72-.55,1.56,0,3.12,0,4.68,0,.58,0,.7.39.81.83.65,2.75,1.31,5.51,2,8.26q1.31,5.37,2.63,10.76,1.45,6,2.93,12c.18.76.06.91-.71.91-1.35,0-2.69,0-4,0-.6,0-.83-.26-1-.82-.48-2.13-1-4.24-1.52-6.36a.88.88,0,0,0-1.06-.79c-.89,0-1.78,0-2.67,0Zm0-14.38c-.09.12-.13.15-.14.19-.85,2.79-1.36,5.66-2.12,8.47-.12.46.13.54.5.54,1.15,0,2.3,0,3.45,0,.54,0,.62-.14.49-.61-.26-1-.49-2-.74-2.93C160.55,86.29,160.08,84.42,159.58,82.46Z"/><path d="M37,72c.72,0,1.44,0,2.16,0a.82.82,0,0,1,.94.69c.52,2.24,1,4.48,1.56,6.72.48,2,1,4,1.52,6.06.7,2.89,1.37,5.79,2.07,8.67.75,3.07,1.53,6.14,2.29,9.21l0,.06c.36,1.29.31,1.36-1,1.37s-2.44,0-3.67,0c-.54,0-.78-.18-.92-.75-.5-2.19-1.08-4.37-1.61-6.56a.71.71,0,0,0-.83-.65c-1.9,0-3.8,0-5.69,0a.7.7,0,0,0-.82.59c-.62,2.14-1.06,4.32-1.57,6.49a1,1,0,0,1-1.14.88c-1.13,0-2.26,0-3.39,0-.63,0-.8-.24-.65-.84.76-3.07,1.51-6.15,2.26-9.22.66-2.75,1.3-5.5,2-8.25.49-2,1-4,1.5-6.07q.9-3.63,1.76-7.27C34,72,34,72,35.13,72Zm-.33,10.09c-.27,1.18-.5,2.2-.74,3.22q-.68,2.78-1.39,5.57c-.15.58,0,.78.62.77,1.05,0,2.11,0,3.16,0,.58,0,.71-.09.56-.67-.52-2-1-4-1.49-6C37.16,84.11,36.94,83.19,36.67,82.11Z"/><path d="M115.8,72c.74,0,1.49,0,2.23,0a.75.75,0,0,1,.85.68q1.23,5.18,2.48,10.34c.77,3.12,1.57,6.22,2.34,9.34.8,3.29,1.58,6.58,2.37,9.86.16.63.32,1.26.49,1.88.11.43,0,.66-.48.66h-4.53a.66.66,0,0,1-.7-.59c-.44-2.13-1.14-4.21-1.5-6.36-.16-1-.25-1-1.2-1-1.8,0-3.6,0-5.4,0-.57,0-.86.15-1,.76-.45,2.1-1,4.2-1.46,6.29a1,1,0,0,1-1.16.92c-1.15,0-2.3,0-3.45,0-.55,0-.8-.11-.63-.76.5-1.87,1-3.75,1.42-5.64.56-2.57,1.27-5.11,1.85-7.68.62-2.76,1.35-5.49,2-8.24.54-2.23,1-4.48,1.58-6.71.24-1,.53-2,.77-3a.89.89,0,0,1,1.09-.76C114.45,72.05,115.13,72,115.8,72Zm-.22,10.38-.16,0c-.7,2.93-1.4,5.85-2.11,8.78-.12.47.1.51.48.51,1.13,0,2.26,0,3.38,0,.63,0,.7-.16.55-.69-.38-1.43-.74-2.87-1.1-4.31S115.93,83.83,115.58,82.4Z"/><path d="M94.09,105.53c-3.45-.33-6.87-1.08-9.67-3.6-.44-.4-.52-.66-.17-1.19.85-1.29,2-2.36,2.72-3.72.19-.33.43-.36.68-.06A8.6,8.6,0,0,0,94,99.82c3.15.26,5.72-1.38,6.22-4.74a4.29,4.29,0,0,0-2.7-4.6,31.57,31.57,0,0,0-5-1,12.33,12.33,0,0,1-5.22-2.32,7.1,7.1,0,0,1-2.66-4.72,10.15,10.15,0,0,1,1.47-7,9.25,9.25,0,0,1,6.22-4c4.06-.82,7.39.64,10.26,3.43a.73.73,0,0,1,.12,1l-2.12,3.34c-.33.52-.57.13-.76-.11a6.28,6.28,0,0,0-2-1.74,6.56,6.56,0,0,0-5.9-.12c-1.52.68-1.88,2.11-2,3.58a2.94,2.94,0,0,0,1.87,3,8.91,8.91,0,0,0,3.62.83,11.12,11.12,0,0,1,6.06,2,10,10,0,0,1-.51,16.89A13.92,13.92,0,0,1,94.09,105.53Z"/><path d="M173.85,90.89c0-4.3,0-8.6,0-12.89,0-.64-.17-.91-.86-.9-1.56,0-3.12,0-4.68,0-.63,0-.9-.15-.85-.86.08-1.15-.05-2.3,0-3.45,0-.61.18-.8.77-.8,2.9,0,5.81,0,8.71,0,2.72,0,5.43,0,8.15,0,.67,0,.95.2.93.9,0,1.1-.05,2.21,0,3.31,0,.71-.26.92-.94.91-1.51,0-3,0-4.54,0-1,0-1,0-1,1v25.22c0,1.45,0,1.45-1.46,1.45h-3.53c-.48,0-.75-.15-.75-.71,0-4.39,0-8.79,0-13.18Z"/><path d="M141.61,119.26c-1.52,2.12-2.92,4.06-4.3,6-.61.87-.71.88-1.35,0l-3.73-5.21c-.16-.23-.34-.45-.55-.72a1,1,0,0,0-.14.78v7c0,.86-.09,1-.95,1h-2.16c-.49,0-.72-.18-.72-.74,0-4.8,0-9.59,0-14.39,0-.5.17-.73.69-.79.91-.1,1.82.09,2.73,0,.33,0,.5.25.67.49q2.13,2.94,4.25,5.89c.06.08.1.16.16.24.46.65.54.64,1,0,1.41-1.94,2.87-3.85,4.21-5.84a2,2,0,0,1,2.08-.86,5.78,5.78,0,0,0,1.44,0c.5-.07.69.14.73.62.1,1.1,0,2.2,0,3.31.08,2.18,0,4.36,0,6.55,0,1.53-.06,3.06-.05,4.6,0,.61-.2.88-.83.85-.79,0-1.59,0-2.38,0s-.89-.23-.89-.89c0-2.37,0-4.75,0-7.12Z"/><path d="M81.67,88.48v15.27c0,1,0,1-1.07,1-1.29,0-2.59,0-3.88,0-.58,0-.86-.19-.76-.82a7.29,7.29,0,0,0,0-1.15V75.75c0-1,0-2.06,0-3.09,0-.49.19-.64.63-.64,1.46,0,2.93,0,4.39,0,.68,0,.69.43.69.92V88.48Z"/><path d="M193.94,88.38v15.34c0,1,0,1.06-1,1.07h-3.67c-.85,0-1-.11-.93-1,.19-8.28,0-16.57.08-24.85,0-2.13.08-4.27-.06-6.4a.45.45,0,0,1,.5-.55h4.54a.51.51,0,0,1,.57.58V88.38Z"/><path d="M163.08,120.14v-7c0-.91.1-1,1-1,3.07,0,6.14,0,9.22,0a8.32,8.32,0,0,1,3,.51,3.91,3.91,0,0,1,2.59,3.27,6.76,6.76,0,0,1-.23,3.42,4,4,0,0,1-2.91,2.64c-.62.15-.48.35-.22.71q1.68,2.3,3.34,4.6c.12.17.34.32.21.56s-.38.17-.59.17c-1.13,0-2.26,0-3.39,0a1.18,1.18,0,0,1-1.06-.59c-1.08-1.53-2.21-3-3.3-4.54a1.21,1.21,0,0,0-1.29-.55,7.68,7.68,0,0,1-1.66,0c-.57,0-.7.18-.69.7,0,1.34,0,2.69,0,4,0,.68-.19,1-.9.93s-1.44,0-2.16,0c-.91,0-1-.09-1-1Zm7.63-4.56c-1,0-1.92,0-2.87,0-.54,0-.73.21-.71.73s0,1.29,0,1.94.22.76.76.76c1.08,0,2.16,0,3.23,0a20.87,20.87,0,0,0,2.37.09,1.57,1.57,0,0,0,1.52-1.87c0-1.18-.49-1.68-1.57-1.69C172.53,115.57,171.62,115.58,170.71,115.58Z"/><path d="M95.18,120.18c0-2.37,0-4.75,0-7.13,0-.69.2-.87.92-.86,3.1.06,6.2,0,9.29,0a7.79,7.79,0,0,1,2.62.4c2.42.82,3.06,2.79,3,4.86a4.57,4.57,0,0,1-1.38,3.52,4.15,4.15,0,0,1-1.92,1.06c-.5.11-.46.3-.23.63l3.38,4.67c.12.17.35.31.24.55s-.37.19-.58.19c-1.15,0-2.3,0-3.46,0a1.1,1.1,0,0,1-1-.5c-1.12-1.56-2.27-3.1-3.38-4.66a1,1,0,0,0-1.09-.51,9.08,9.08,0,0,1-1.65,0c-.65,0-.91.19-.89.86,0,1.27,0,2.54,0,3.82,0,.88-.08,1-.93,1s-1.54,0-2.31,0c-.52,0-.72-.19-.7-.74,0-1.19,0-2.4,0-3.6Zm7.56-4.6c-1,0-2,0-2.95,0-.48,0-.71.17-.69.68s0,1.2,0,1.8.25.94.92,1c1.66,0,3.31.11,5,.15s2.24-.75,2-2.32c-.17-.93-.51-1.23-1.46-1.25S103.66,115.58,102.74,115.58Z"/><path d="M36.41,120.82v-1.63c0-2,0-4.08,0-6.12,0-.61.19-.88.83-.86s1.48,0,2.22,0c.47,0,.66.2.69.63,0,.14,0,.28,0,.43q0,6.92,0,13.82c0,1,0,1.06-1,1.06-.58,0-1.16,0-1.73,0a1.43,1.43,0,0,1-1.38-.71c-1.9-2.68-3.82-5.35-5.76-8.07-.23.25-.14.52-.14.75,0,2.36,0,4.71,0,7.06,0,.7-.21,1-.95,1s-1.25,0-1.87,0-.81-.24-.81-.82c0-2.19,0-4.37,0-6.56v-7.63c0-.86.12-.94,1-.91a12,12,0,0,0,1.8,0,1.22,1.22,0,0,1,1.24.65c1.89,2.68,3.82,5.34,5.74,8Z"/><path d="M79.2,120.14v-7c0-.94.06-1,1-1,4,0,7.91.1,11.87,0,.56,0,.74.2.73.7s0,1.25,0,1.87-.26.84-.86.84c-2.38,0-4.76,0-7.13,0a4.68,4.68,0,0,1-.65,0c-.64-.07-.94.16-.88.85,0,.54,0,1.1,0,1.65,0,1.09,0,1.09,1.12,1.09h5.55c.87,0,1,.08,1,.94,0,.48,0,1,0,1.44,0,.69-.25.95-.92.94-1.95,0-3.89,0-5.83,0-.71,0-.93.24-.9.92.06,1.43-.24,1.42,1.46,1.42,2.69,0,5.38,0,8.07,0,.63,0,.93.18.88.87a15.43,15.43,0,0,0,0,1.8c0,.46-.2.66-.65.65s-.91,0-1.36,0H80.2c-.92,0-1-.08-1-1Z"/><path d="M154.66,128.11h-6.27c-.9,0-1-.11-1-1,0-3.45.06-6.91.09-10.36,0-1.29-.12-2.58-.07-3.88,0-.48.15-.71.67-.7,2.95,0,5.9,0,8.84,0,1.11,0,2.2-.13,3.31-.06.57,0,.72.24.71.72s0,1.25,0,1.87-.24.82-.82.82c-1.72,0-3.45,0-5.18,0-1,0-1.92,0-2.88,0-.46,0-.66.18-.65.64,0,.72,0,1.45,0,2.17s.19.79.79.78c2,0,3.94,0,5.91,0,.7,0,1,.19,1,.94a8.46,8.46,0,0,0,0,1.51c0,.66-.22.9-.87.9-1.92,0-3.84,0-5.77,0-1,0-1,0-1,1,0,.12,0,.24,0,.36,0,1,0,1,1,1h8.42c1,0,1,0,1,1a12.82,12.82,0,0,0,0,1.52c.07.62-.19.8-.77.8C158.93,128.1,156.79,128.11,154.66,128.11Z"/><path d="M41.74,120.11c0-2.38,0-4.76,0-7.14,0-.55.12-.8.77-.8,3.27,0,6.53,0,9.79.06.75,0,1.48-.13,2.23-.06.49,0,.69.21.67.7s0,1.11,0,1.66c0,1-.05,1-1.08,1-2.49,0-5,0-7.49,0-.7,0-.93.18-.84.89a10.61,10.61,0,0,1,0,1.87c-.05.68.25.86.89.85,1.92,0,3.84,0,5.76,0,.65,0,.93.2.88.86a13.14,13.14,0,0,0,0,1.66c0,.59-.23.82-.81.81-1.9,0-3.79,0-5.69,0-1,0-1,0-1,1a3.09,3.09,0,0,1,0,.43c-.09.71.24.92.91.91,2.84,0,5.67,0,8.5,0,.92,0,1,.06,1,1,0,.48,0,1,0,1.44,0,.65-.23.9-.88.89-1.8,0-3.6,0-5.4,0H42.68c-.87,0-.94-.07-.94-1C41.73,124.81,41.74,122.46,41.74,120.11Z"/><path d="M62.34,120.05c0-2.32,0-4.65,0-7,0-.66.15-.88.89-.89,2.38,0,4.74.13,7.12,0a13.08,13.08,0,0,1,4.77.45,4,4,0,0,1,2.9,3,6.37,6.37,0,0,1-.23,4.09,4.48,4.48,0,0,1-4,2.66,60.93,60.93,0,0,1-6.76.08c-.52,0-.67.15-.67.64,0,1.39,0,2.79,0,4.18,0,.61-.21.88-.84.85-.79,0-1.59,0-2.38,0-.62,0-.84-.25-.83-.87C62.35,124.85,62.34,122.45,62.34,120.05ZM70,115.58h0c-.93,0-1.87,0-2.8,0-.61,0-.81.23-.79.81a17.93,17.93,0,0,1,0,1.94c0,.61.18.87.82.85,1.18,0,2.35,0,3.53,0a17.11,17.11,0,0,0,2.15-.05c1-.13,1.41-.82,1.3-2.18a1.37,1.37,0,0,0-1.54-1.34C71.74,115.57,70.85,115.58,70,115.58Z"/><path d="M112.49,118.56v-5.4c0-.91.12-1,1-1a15.09,15.09,0,0,0,2.23,0c.68-.08.84.21.84.8,0,2.31,0,4.61,0,6.91,0,1,0,2.07,0,3.1a2.1,2.1,0,0,0,2.27,2.24h.65a2.23,2.23,0,0,0,2.5-2.49c0-3,0-5.95,0-8.93,0-.24,0-.48,0-.72,0-.89.05-.9,1-.88s1.54,0,2.3,0c.56,0,.81.15.81.71,0,3.65,0,7.3,0,10.94a4.69,4.69,0,0,1-3.93,4.6,11.1,11.1,0,0,1-6.65-.32,4.45,4.45,0,0,1-2.94-4.22c-.1-1.77,0-3.55,0-5.33Z"/><path d="M5,120.14c0-2.33,0-4.66,0-7,0-.91.1-1,1-.94,3.89,0,7.78,0,11.66,0,.67,0,.93.17.9.83a15.32,15.32,0,0,0,0,1.66c0,.65-.23.9-.88.89-2.38,0-4.76,0-7.13,0-.31,0-.63,0-.94,0s-.57.17-.56.56c0,.82,0,1.64,0,2.45,0,.59.39.57.79.57h5.9c.88,0,.94.07,1,1v1.29c0,1,0,1.08-1.11,1.08-1.88,0-3.75,0-5.62,0-.68,0-.94.2-.92.91.05,1.29,0,2.59,0,3.88,0,.61-.21.89-.83.87-.8,0-1.59,0-2.38,0-.62,0-.86-.23-.85-.85C5,124.89,5,122.51,5,120.14Z"/><path d="M185,124.51a2.9,2.9,0,0,1,0-.51,6.1,6.1,0,0,0-1.53-5c-1.59-1.94-3-4-4.45-6.09-.14-.2-.37-.38-.22-.64s.42-.12.65-.12c1.08,0,2.16,0,3.23,0a1,1,0,0,1,1,.48c1,1.34,2,2.66,2.91,4,.31.44.49.4.78,0,.94-1.33,1.92-2.63,2.86-4a1.07,1.07,0,0,1,1.08-.52,17.93,17.93,0,0,0,3,0c.24,0,.5-.08.63.19s-.06.4-.19.58c-1.8,2.46-3.58,4.93-5.38,7.38a1.89,1.89,0,0,0-.37,1.21c0,1.87,0,3.75,0,5.62,0,.89-.09,1-1,1-.74,0-1.49,0-2.23,0-.58,0-.84-.21-.82-.81,0-.93,0-1.87,0-2.8Z"/><path d="M24.35,120.21c0,2.33,0,4.66,0,7,0,.68-.22,1-.91.92s-1.54,0-2.31,0c-.56,0-.79-.18-.78-.81,0-2.64,0-5.28,0-7.92,0-2.15-.14-4.31,0-6.47,0-.51.18-.72.72-.7a17,17,0,0,0,2.37,0c.76-.08.9.29.89.92C24.33,115.46,24.35,117.84,24.35,120.21Z"/></svg>