<svg id="Layer_1" data-name="Layer 1" xmlns="http://www.w3.org/2000/svg" viewBox="0 0 200 200"><defs><style>.cls-1{fill:#1d1d1b;}</style></defs><polygon class="cls-1" points="183.19 116.91 141.24 116.91 123.3 116.91 16.4 116.91 16.4 120.15 183.19 120.15 183.19 116.91"/><path class="cls-1" d="M16.4,5.19V89.91h9.18V38.57H148.71a18.26,18.26,0,0,1,10.86,3.61,10.75,10.75,0,0,1,4.93,9.09v29.1a10,10,0,0,0,3.17,6.82A9.52,9.52,0,0,0,174.49,90h8.7V81.38h-5.92a3.66,3.66,0,0,1-2.65-1.13,3.93,3.93,0,0,1-.88-1.31V51.3c-.09-5.66-3.08-9.45-6.44-13.72a23.38,23.38,0,0,0-14.32-7H133.23c4-9.73,1.12-25.48-12-25.48H16.51L16.4,5v.1h-.1ZM121.27,30.57l-95.69,0V13.13h94.91C127.76,13.13,128.13,29.42,121.27,30.57Z"/><path class="cls-1" d="M183.69,167.05V164.4h-3.21v15.93a1.32,1.32,0,0,1-1.28,1.28h-2.77v2.9h4a3.24,3.24,0,0,0,2.3-.94,3.2,3.2,0,0,0,.94-2.3Z"/><polygon class="cls-1" points="115.89 184.51 104.78 184.5 104.78 184.51 115.89 184.51"/><path class="cls-1" d="M168.43,174.63V178a3.67,3.67,0,0,1-1.15,2.73,3.77,3.77,0,0,1-5.44,0,3.67,3.67,0,0,1-1.15-2.73V164.4h-2.9V178a3.87,3.87,0,0,1-7.73,0V164.4h-2.89v8.26h-9.8V164.4h-2.9v15.91a1.3,1.3,0,0,1-1.28,1.28h-29a1.3,1.3,0,0,1-1.28-1.28V164.4H100v16.85a3.18,3.18,0,0,0,3.24,3.24h16.6l2.61,0h10.15v0h1.54a3.18,3.18,0,0,0,3.24-3.24v-5.34h9.8V178a6,6,0,0,0,2,4.61,6.59,6.59,0,0,0,4.74,1.88,7.08,7.08,0,0,0,5.3-2.43,7,7,0,0,0,2.3,1.74,6.86,6.86,0,0,0,3,.69,6.59,6.59,0,0,0,4.74-1.88,6,6,0,0,0,2-4.61V164.4h-2.88Z"/><rect class="cls-1" x="112.26" y="172.83" width="14.21" height="2.9"/><path class="cls-1" d="M21.33,175.78h11a4.5,4.5,0,0,0,1.74-.34h0l.16-.08h0a3.72,3.72,0,0,0,1.79-1.74c.06-.1.11-.2.16-.3s.09-.19.13-.28a7.22,7.22,0,0,0,.55-2.5c0-.15,0-.29,0-.43s0-.29,0-.43a7.22,7.22,0,0,0-.55-2.5,2.39,2.39,0,0,0-.13-.28,3,3,0,0,0-.16-.31,3.74,3.74,0,0,0-1.79-1.73l0,0-.16-.08h0a4.5,4.5,0,0,0-1.74-.34H18.42v16.31a1.23,1.23,0,0,1-.38.9,3.66,3.66,0,0,1-1.64.38v2.9h1.68a3.21,3.21,0,0,0,3.25-3.24Zm2.92-8.65h7.83a1.65,1.65,0,0,1,.46.06c1,.31,1.47,1.6,1.47,2.89h0c0,1.29-.5,2.58-1.47,2.88a1.35,1.35,0,0,1-.46.07H21.33v-5.93Z"/><polygon class="cls-1" points="99.74 195 134.75 195 144.49 195 183.19 195 183.19 192.89 99.74 192.89 99.74 195"/><path class="cls-1" d="M92.94,174.28v-3.4a6.06,6.06,0,0,0-2-4.61,6.59,6.59,0,0,0-4.75-1.87,7,7,0,0,0-5.29,2.42,7.15,7.15,0,0,0-2.3-1.74,7,7,0,0,0-3-.68,6.55,6.55,0,0,0-4.74,1.87,6,6,0,0,0-2,4.61v1.78H59.08v-8.24h-14a4.5,4.5,0,0,0-1.74.34h0l-.17.08,0,0a3.74,3.74,0,0,0-1.79,1.73,3.07,3.07,0,0,0-.17.31l-.12.28a7,7,0,0,0-.55,2.5c0,.15,0,.29,0,.43s0,.28,0,.42a7,7,0,0,0,.55,2.51l.12.28c0,.1.11.2.17.3a3.72,3.72,0,0,0,1.79,1.74h0l.17.08h0a4.32,4.32,0,0,0,1.74.35H56.18v4.95A1.3,1.3,0,0,1,54.9,182H41.05v2.9H55.84a3.21,3.21,0,0,0,3.24-3.24v-5.76h9.71v8.6H92.94V174.28ZM52,173.06H45.37a1.33,1.33,0,0,1-.45-.07c-1-.3-1.47-1.59-1.48-2.88h0c0-1.29.51-2.58,1.48-2.89a1.63,1.63,0,0,1,.45-.06H56.18v5.92Zm19.67,8.58V170.88a3.87,3.87,0,0,1,7.73,0v10.76Zm10.64,0V170.88A3.91,3.91,0,0,1,86.18,167a3.93,3.93,0,0,1,3.87,3.88v10.76Z"/></svg>