<?xml version="1.0" encoding="utf-8"?>
<!-- Generator: Adobe Illustrator 27.0.0, SVG Export Plug-In . SVG Version: 6.00 Build 0)  -->
<svg version="1.1" id="Layer_1" xmlns="http://www.w3.org/2000/svg" xmlns:xlink="http://www.w3.org/1999/xlink" x="0px" y="0px"
	 viewBox="0 0 200 200" style="enable-background:new 0 0 200 200;" xml:space="preserve">
<style type="text/css">
	.st0{fill:#231F20;}
</style>
<path class="st0" d="M104.7,100v0.7h-5V100c0-11.6-9.4-21-21-21s-21,9.4-21,21c0,14.4-11.7,26-26,26c-14.4,0-26-11.7-26-26v-0.7h5
	v0.7c0,11.6,9.4,21,21,21c11.6,0,21-9.4,21-21c0-14.4,11.7-26,26-26C93,74,104.7,85.6,104.7,100z M121,126h5V74h-5V126z M168.4,74
	L168.4,74c-14.4,0-26.1,11.7-26.1,26v26h5v-26c0-11.6,9.4-21,21-21h0c11.6,0,21,9.4,21,21v26h5v-26C194.5,85.6,182.8,74,168.4,74z"
	/>
</svg>
