<svg id="Layer_1" data-name="Layer 1" xmlns="http://www.w3.org/2000/svg" viewBox="0 0 200 200"><defs><style>.cls-1,.cls-2{fill:#231f20;}.cls-1{fill-rule:evenodd;}.cls-2{font-size:26.72px;font-family:CalistoMT, Calisto MT;}</style></defs><path class="cls-1" d="M190.36,118.49h-.06a3.78,3.78,0,0,1-3.65-3.63h0a3.76,3.76,0,0,1,3.77-3.77,3.61,3.61,0,0,1,3.59,3.77,3.65,3.65,0,0,1-3.65,3.63"/><path class="cls-1" d="M96,132.25V75c0-8.64.56-11.87,4.07-13.34,3.5,1.47,4.06,4.7,4.06,13.34v57.29c0,7.41-.51,10.77-4.07,12.49C96.46,143,96,139.66,96,132.25ZM41.07,55.77H159c.2,3.8.8,13.49,1.4,21.69l-4.6.6a40.22,40.22,0,0,0-4.9-12.69c-2.2-3.2-6.3-4.2-16.59-4.2h-11.1c-4.9,0-5.2.4-5.2,4.8V98.76h13.7c13.39,0,14.39-1.2,16.29-11.1h4.5v28.69H148c-2.1-10.7-3.2-11.5-16.29-11.5H118v26.9c0,6.89.8,10.19,3.6,12s8.5,1.7,15.29,1.7c9.55,0,35.64,1.31,48.47-.35,2.19-1.1,2.51-3.58,2.51-7.25v-4.36c0-4.23-.23-4.55-4.28-5.24v-1.61a50.82,50.82,0,0,0,10.21-2.58v30.26H6.27V124.06a51.5,51.5,0,0,0,10.21,2.57v1.61c-4,.69-4.28,1-4.28,5.24v4.36c0,3.67.32,6.15,2.51,7.25,12.83,1.66,38.92.35,48.46.35,6.8,0,12.4,0,15.3-1.7s3.6-5.1,3.6-12v-26.9H68.36c-13.09,0-14.19.8-16.29,11.5h-4.5V87.66h4.5c1.9,9.9,2.9,11.1,16.29,11.1h13.7V66c0-4.4-.3-4.8-5.2-4.8H65.76c-10.29,0-14.39,1-16.59,4.2a40.22,40.22,0,0,0-4.9,12.69l-4.6-.6C40.27,69.27,40.87,59.57,41.07,55.77Z"/><path class="cls-1" d="M9.74,118.49H9.67A3.65,3.65,0,0,1,6,114.86H6a3.61,3.61,0,0,1,3.59-3.77,3.7,3.7,0,1,1,.12,7.4"/><path class="cls-1" d="M81.58,25.06a14.64,14.64,0,0,1,8.12,3.19l-1.23-6.57a18.48,18.48,0,0,1-6.89,3.38"/><path class="cls-1" d="M94.62,54.58H80.69l-1.53-8.11c1.33-.37,4.14-1.63,4-5.79,0,0,.43-2.64-4-3,0,0,4.41-.4,4.41-5.63,0,0,1.2,4.82,5.72,4.48,0,0-3.57,1-3,3.43.47,1.89,1.71,4.24,6.33,4.1Z"/><path class="cls-1" d="M79.32,54.58H72.87c-.09-2.35-2.58-6.42-6-10.93L69.47,42c2,3.39,7.66,4.65,7.66,4.65a4.8,4.8,0,0,0,.67-.14Z"/><path class="cls-1" d="M65.53,42.28l2.57-1.69c-1.29-2.18-1.09-5.24,3.11-9.42,0,0-11.59.51-25.68-11.48,0,0,12.33,12.42,20,22.59"/><path class="cls-1" d="M127.13,54.58h-6.3l1.52-8.08c.32.08.52.11.52.11h0s5.74-1.26,7.83-4.64l2.5,1.64c-3.45,4.53-6,8.62-6.07,11"/><path class="cls-1" d="M119.47,54.58H105.54l2-10.51c4.48.08,5.7-2.24,6.17-4.1.62-2.44-3-3.43-3-3.43h0c4.51.34,5.72-4.48,5.72-4.48,0,5.23,4.41,5.63,4.41,5.63-4.45.35-4,3-4,3-.14,4.32,2.91,5.51,4.15,5.82Z"/><path class="cls-1" d="M129.05,31.17h0c4.2,4.19,4.36,7.25,3,9.43l2.5,1.64c7.75-10.17,20.17-22.55,20.17-22.55-14.09,12-25.66,11.48-25.68,11.48"/><path class="cls-1" d="M110.46,28.21a15.05,15.05,0,0,1,8.22-3.15,18.7,18.7,0,0,1-7-3.45Z"/><path class="cls-1" d="M96.6,25.56c0-3.74,1.34-6.82,3.08-7.27l.09,0h0l.09,0h.54l.09,0h0l.09,0h0l.09,0h0l.09,0,.26.12h0l.08.05a2.19,2.19,0,0,1,.33.23h0l.16.14h0l.07.07h0l.08.08h0l.08.08h0l.07.09h0l.07.09.08.09.07.1.07.1h0l.07.1.06.11.07.11.07.12h0l.06.11h0l.06.12h0l.06.12h0l.12.26h0l.11.27h0a12.91,12.91,0,0,1,.81,4.66,11.34,11.34,0,0,1-1.36,5.76h0a4.15,4.15,0,0,1-.27.41h0l-.08.09-.07.09h0l-.07.09h0l-.08.08h0l-.08.08h0l-.07.08h0l-.08.07h0l-.08.07h0l-.16.12h0l-.17.11-.08,0h0l-.26.12-.09,0h0l-.09,0h0l-.09,0h-.72l-.09,0c-1.74-.46-3.08-3.54-3.08-7.27Zm7.57,29H96L94,44.07h.09c2.18-8.52,0-13.22-3-15.82l-1.23-6.57h0a41.61,41.61,0,0,0,10.29-11.36,41.45,41.45,0,0,0,10.2,11.29l-1.23,6.6c-3.1,2.59-5.4,7.29-3.21,15.86h.24Z"/><text class="cls-2" transform="translate(5 183.91)">Eli Gold Galler</text><text class="cls-2" transform="translate(181.38 183.91)">y</text></svg>