<?xml version="1.0" encoding="utf-8"?>
<!-- Generator: Adobe Illustrator 27.0.0, SVG Export Plug-In . SVG Version: 6.00 Build 0)  -->
<svg version="1.1" id="Layer_1" xmlns="http://www.w3.org/2000/svg" xmlns:xlink="http://www.w3.org/1999/xlink" x="0px" y="0px"
	 viewBox="0 0 468 164" style="enable-background:new 0 0 468 164;" xml:space="preserve">
<g>
	<path d="M392.2,19.4v125.9h-15.5V19.4H392.2z"/>
	<path d="M35.7,19.4v26.8H20.2V19.4H35.7z"/>
	<path d="M247,19.4v26.8h-15.5V19.4H247z"/>
	<path d="M448.5,19.4v125.9H433V19.4H448.5z"/>
	<path d="M320.7,19.4v23.9c0,12.2-7.4,13.1-46.7,19c-35.7,5-54.4,16.6-54.4,43.1c0,23.8,18.1,39.8,47.6,39.8
		c22.9,0,41.3-10.4,53.5-24.7v24.7h15.5V19.4H320.7z M320.7,81.7c0,30.3-27.9,48.2-52.6,48.2c-21.1,0-33-8.9-33-23.5
		c0-16.9,12.2-25,38-28.5c18.4-2.7,39.2-6.2,47.5-8L320.7,81.7L320.7,81.7z"/>
	<polygon points="175.2,19.4 175.2,74.8 35.7,74.8 35.7,145.3 51.1,145.3 51.1,89.9 175.2,89.9 175.2,145.3 190.7,145.3 190.7,19.4 
			"/>
</g>
</svg>
